<?xml version="1.0" encoding="UTF-8" standalone="no"?>
<!DOCTYPE svg PUBLIC "-//W3C//DTD SVG 1.1//EN"
 "http://www.w3.org/Graphics/SVG/1.1/DTD/svg11.dtd">
<!-- Generated by graphviz version 2.38.0 (20140413.2041)
 -->
<!-- Title: models_diagram Pages: 1 -->
<svg width="482pt" height="232pt"
 viewBox="0.00 0.00 481.55 232.00" xmlns="http://www.w3.org/2000/svg" xmlns:xlink="http://www.w3.org/1999/xlink">
<g id="graph0" class="graph" transform="scale(1 1) rotate(0) translate(4 228)">
<title>models_diagram</title>
<polygon fill="none" stroke="none" points="-4,4 -4,-228 477.55,-228 477.55,4 -4,4"/>
<!-- _diagram_info -->
<g id="node1" class="node"><title>_diagram_info</title>
<text text-anchor="start" x="8" y="-202.6" font-family="Times,serif" font-size="13.00">Models diagram</text>
<text text-anchor="start" x="8" y="-189.6" font-family="Times,serif" font-size="13.00">Date: Oct 25 2016 &#45; 21:51</text>
<text text-anchor="start" x="8" y="-176.6" font-family="Times,serif" font-size="13.00">Migration version: 20161026023524</text>
<text text-anchor="start" x="8" y="-163.6" font-family="Times,serif" font-size="13.00">Generated by RailRoady 1.5.2</text>
<text text-anchor="start" x="8" y="-150.6" font-family="Times,serif" font-size="13.00">http://railroady.prestonlee.com</text>
</g>
<!-- Category -->
<g id="node2" class="node"><title>Category</title>
<path fill="none" stroke="black" d="M237.825,-137.5C237.825,-137.5 461.55,-137.5 461.55,-137.5 467.55,-137.5 473.55,-143.5 473.55,-149.5 473.55,-149.5 473.55,-211.5 473.55,-211.5 473.55,-217.5 467.55,-223.5 461.55,-223.5 461.55,-223.5 237.825,-223.5 237.825,-223.5 231.825,-223.5 225.825,-217.5 225.825,-211.5 225.825,-211.5 225.825,-149.5 225.825,-149.5 225.825,-143.5 231.825,-137.5 237.825,-137.5"/>
<text text-anchor="middle" x="349.688" y="-208.3" font-family="Times,serif" font-size="14.00">Category</text>
<polyline fill="none" stroke="black" points="225.825,-201.5 473.55,-201.5 "/>
<text text-anchor="start" x="233.825" y="-186.3" font-family="Times,serif" font-size="14.00">id :integer</text>
<text text-anchor="start" x="233.825" y="-172.3" font-family="Times,serif" font-size="14.00">name :character varying</text>
<text text-anchor="start" x="233.825" y="-158.3" font-family="Times,serif" font-size="14.00">created_at :timestamp without time zone</text>
<text text-anchor="start" x="233.825" y="-144.3" font-family="Times,serif" font-size="14.00">updated_at :timestamp without time zone</text>
</g>
<!-- Product -->
<g id="node3" class="node"><title>Product</title>
<path fill="none" stroke="black" d="M237.825,-0.5C237.825,-0.5 461.55,-0.5 461.55,-0.5 467.55,-0.5 473.55,-6.5 473.55,-12.5 473.55,-12.5 473.55,-88.5 473.55,-88.5 473.55,-94.5 467.55,-100.5 461.55,-100.5 461.55,-100.5 237.825,-100.5 237.825,-100.5 231.825,-100.5 225.825,-94.5 225.825,-88.5 225.825,-88.5 225.825,-12.5 225.825,-12.5 225.825,-6.5 231.825,-0.5 237.825,-0.5"/>
<text text-anchor="middle" x="349.688" y="-85.3" font-family="Times,serif" font-size="14.00">Product</text>
<polyline fill="none" stroke="black" points="225.825,-78.5 473.55,-78.5 "/>
<text text-anchor="start" x="233.825" y="-63.3" font-family="Times,serif" font-size="14.00">id :integer</text>
<text text-anchor="start" x="233.825" y="-49.3" font-family="Times,serif" font-size="14.00">name :character varying</text>
<text text-anchor="start" x="233.825" y="-35.3" font-family="Times,serif" font-size="14.00">category_id :integer</text>
<text text-anchor="start" x="233.825" y="-21.3" font-family="Times,serif" font-size="14.00">created_at :timestamp without time zone</text>
<text text-anchor="start" x="233.825" y="-7.3" font-family="Times,serif" font-size="14.00">updated_at :timestamp without time zone</text>
</g>
<!-- Category&#45;&gt;Product -->
<g id="edge1" class="edge"><title>Category&#45;&gt;Product</title>
<path fill="none" stroke="#559837" d="M349.688,-129.167C349.688,-123.196 349.688,-117.058 349.688,-110.975"/>
<ellipse fill="none" stroke="#559837" cx="349.688" cy="-133.233" rx="4" ry="4"/>
<polygon fill="#559837" stroke="#559837" points="349.688,-110.828 354.188,-100.828 349.688,-105.828 349.688,-100.828 349.688,-100.828 349.688,-100.828 349.688,-105.828 345.188,-100.828 349.688,-110.828 349.688,-110.828"/>
</g>
</g>
</svg>
